<svg xmlns="http://www.w3.org/2000/svg" viewBox="0 0 32 32" xmlns:v="https://vecta.io/nano"><defs><linearGradient id="A" x1="37.053" y1="27.655" x2="65.542" y2="27.687" gradientUnits="userSpaceOnUse" spreadMethod="pad"><stop offset="0" stop-color="#6daab8"/></linearGradient><linearGradient id="B" x1="1.371" y1="14.628" x2="30.398" y2="14.628" gradientUnits="userSpaceOnUse"><stop offset="0" stop-color="#3c6183"/><stop offset="1" stop-color="#408479"/></linearGradient></defs><path d="M2.262 6.423v2.873c-1.177 0-.981 1.38-.981 1.915v12.834c0 2.292.981 3.057 3.925 3.057h21.589c2.922 0 3.925-.764 3.925-3.057V9.412c0-1.17-.803-2.031-1.963-2.031 0-2.873-14.397-.422-14.397-.422" fill="url(#B)"/><path d="M5.593 2.593c-2.389 0-3.332.989-3.332 2.592v4.111h9.697c.824 0 1.751-1.915 2.42-1.915h14.415c0-2.795-.664-2.872-3.925-2.872H16c-.963 0-1.048-1.915-3.011-1.915z" fill="url(#A)" fill-rule="evenodd"/><path d="M5.908 16.879c-.729 0-1.316.427-1.316.957v10.533c0 .53.587.957 1.316.957h4.023c.729 0 1.316-.427 1.316-.957V17.836c0-.53-.587-.957-1.316-.957H5.908zm16.162 0c-.729 0-1.316.427-1.316.957v10.533c0 .53.587.957 1.316.957h4.023c.729 0 1.316-.427 1.316-.957V17.836c0-.53-.587-.957-1.316-.957H22.07z" fill="#e9e8ea" opacity=".414" fill-opacity=".502"/><path d="M2.005 26.333c.527.426 1.238.759 3.201.759h21.589c1.818 0 2.471-.255 3.164-.759z" opacity=".763" fill="url(#A)" fill-rule="evenodd"/><path d="M5.881 15.921c-.724 0-1.297.482-1.283 1.114l-.006 10.376c0 .53.531.957 1.19.957h4.274c.66 0 1.19-.427 1.19-.957v-6.136h9.507v6.136c0 .53.531.957 1.19.957h4.274c.66 0 1.248-.427 1.248-.957l-.002-10.279c.022-.658-.55-1.211-1.289-1.211z" fill="#e9e8ea"/></svg>