<svg xmlns="http://www.w3.org/2000/svg" width="64" height="64" xmlns:v="https://vecta.io/nano"><defs><linearGradient id="A" x1="2.395" x2="61.612" y1="29.507" y2="29.507" gradientUnits="userSpaceOnUse"><stop stop-color="#6babb6" offset="0"/><stop stop-color="#f38bb0" offset="1"/></linearGradient><linearGradient id="B" x1="1.939" y1="36.929" x2="61.414" y2="36.929" gradientUnits="userSpaceOnUse"><stop offset="0" stop-color="#3c6183"/><stop offset="1" stop-color="#408479"/></linearGradient><linearGradient id="C" x1="4.584" y1="55.356" x2="61.459" y2="55.419" gradientUnits="userSpaceOnUse"><stop offset="0" stop-color="#204e60"/></linearGradient></defs><path fill="url(#C)" d="M2.021 50.205v2.378c0 1.951 1.601 3.436 3.566 3.436h52.867c1.97 0 3.566-1.484 3.566-3.436v-2.377"/><path fill="url(#A)" d="M31.519 13.207c-.88 0-1.922-.516-2.317-1.148l-1.77-2.884c-.393-.631-1.435-1.147-2.315-1.148L5.847 8c-1.946-.003-3.44 1.416-3.44 3.166l-.012 39.848h59.217v-35.24c0-1.554-.914-2.567-2.515-2.567z"/><path fill="#fff5f6" d="M57.94 26.826H6.448v-7.23c0-1.183.868-2.41 2.519-2.41h46.258c1.678 0 2.716 1.226 2.716 2.41z"/><path fill="url(#B)" d="M58.757 21.338H5.244c-1.622 0-3.243 1.475-3.243 2.95v26.276C2.001 52.515 3.602 54 5.567 54h52.867C60.404 54 62 52.516 62 50.564V24.289c0-1.475-1.622-2.951-3.243-2.951"/></svg>