<svg xmlns="http://www.w3.org/2000/svg" width="64" height="64"><defs><linearGradient id="A" x1="2.395" x2="61.612" y1="29.507" y2="29.507" gradientUnits="userSpaceOnUse"><stop stop-color="#6babb6" offset="0"/><stop stop-color="#f38bb0" offset="1"/></linearGradient><linearGradient id="B" x1="1.939" y1="36.929" x2="61.414" y2="36.929" gradientUnits="userSpaceOnUse"><stop offset="0" stop-color="#3c6183"/><stop offset="1" stop-color="#408479"/></linearGradient></defs><path fill="url(#A)" d="M31.519 13.207c-.88 0-1.922-.516-2.317-1.148l-1.77-2.884c-.393-.631-1.435-1.147-2.315-1.148L5.847 8c-1.946-.003-3.44 1.416-3.44 3.166l-.012 39.848h59.217v-35.24c0-1.554-.914-2.567-2.515-2.567z"/><path fill="#fff5f6" d="M57.94 26.826H6.448v-7.23c0-1.183.868-2.41 2.519-2.41h46.258c1.678 0 2.716 1.226 2.716 2.41z"/><path fill="url(#B)" d="M58.757 21.338H5.244c-1.622 0-3.243 1.475-3.243 2.95v28.276C2.001 54.515 3.602 56 5.567 56h52.867C60.404 56 62 54.516 62 52.564V24.289c0-1.475-1.622-2.951-3.243-2.951"/><path d="m58.774 43.624-4.1517-3.3552a0.71178 0.71178 0 0 0-0.98802 0 0.6654 0.6654 0 0 0 0 0.96382l3.5972 2.9096-3.5972 2.9076a0.6654 0.6654 0 0 0 0 0.96382 0.70573 0.70573 0 0 0 0.98802 0l4.1537-3.3552a0.6654 0.6654 0 0 0 0.19559-0.51619 0.6654 0.6654 0 0 0-0.1976-0.51619m-15.256 3.4258-3.5972-2.9076 3.5972-2.9096a0.6654 0.6654 0 0 0 0-0.96382 0.70573 0.70573 0 0 0-0.98802 0l-4.1517 3.3572a0.6654 0.6654 0 0 0-0.1976 0.51619 0.6654 0.6654 0 0 0 0.1976 0.51619l4.1517 3.3552a0.70573 0.70573 0 0 0 0.98802 0 0.6654 0.6654 0 0 0 0-0.96382m9.8802-12.024a0.69968 0.69968 0 0 0-0.94568 0.24801l-8.6623 16.691c-0.19155 0.32463-0.1109 0.82268 0.25406 0.92753 0.44763 0.13106 0.75614 0.07663 0.94769-0.24801l8.6603-16.691a0.67145 0.67145 0 0 0-0.25205-0.92753" fill="#e9f1f1ff" stroke-width="2.0164"/></svg>