<svg xmlns="http://www.w3.org/2000/svg" width="64" height="64"><defs><linearGradient id="A" x1="2.395" x2="61.612" y1="29.507" y2="29.507" gradientUnits="userSpaceOnUse"><stop stop-color="#6babb6" offset="0"/><stop stop-color="#f38bb0" offset="1"/></linearGradient><linearGradient id="B" x1="1.939" y1="36.929" x2="61.414" y2="36.929" gradientUnits="userSpaceOnUse"><stop offset="0" stop-color="#3c6183"/><stop offset="1" stop-color="#408479"/></linearGradient></defs><path fill="url(#A)" d="M31.519 13.207c-.88 0-1.922-.516-2.317-1.148l-1.77-2.884c-.393-.631-1.435-1.147-2.315-1.148L5.847 8c-1.946-.003-3.44 1.416-3.44 3.166l-.012 39.848h59.217v-35.24c0-1.554-.914-2.567-2.515-2.567z"/><path fill="#fff5f6" d="M57.94 26.826H6.448v-7.23c0-1.183.868-2.41 2.519-2.41h46.258c1.678 0 2.716 1.226 2.716 2.41z"/><path fill="url(#B)" d="M58.757 21.338H5.244c-1.622 0-3.243 1.475-3.243 2.95v28.276C2.001 54.515 3.602 56 5.567 56h52.867C60.404 56 62 54.516 62 52.564V24.289c0-1.475-1.622-2.951-3.243-2.951"/><path d="m40.86 34.928c-1.5345 0-2.7701 1.2356-2.7701 2.7701v12.463c0 1.5345 1.2356 2.7701 2.7701 2.7701h15.345c1.5345 0 2.7701-1.2356 2.7701-2.7701v-12.463c0-1.5345-1.2356-2.7701-2.7701-2.7701zm0 1.3851h0.94662v1.3851h-2.3317c0-0.76726 0.6178-1.3851 1.387-1.3851m2.1483 0h11.049v6.9233h-11.049zm12.252 0h0.94463c0.76726 0 1.3851 0.61779 1.3851 1.3851h-2.3317zm-15.786 2.7701h2.3317v1.3851h-2.3317zm15.784 0h2.3317v1.3851h-2.3317zm-15.784 2.7701h2.3317v1.3831h-2.3317zm15.784 0h2.3317v1.3831h-2.3317zm-15.784 2.7701h2.3317v1.3831h-2.3317zm3.5334 0h11.049v6.9233h-11.049zm12.252 0h2.3297v1.3831h-2.3317zm-15.786 2.7701h2.3317v1.3831h-2.3317zm15.784 0h2.3317v1.3831h-2.3317zm-15.784 2.7701h2.3317v1.3831h-0.94662a1.3811 1.3811 0 0 1-1.3851-1.3851m15.784 0h2.3317c0 0.76726-0.61779 1.3851-1.3851 1.3851h-0.94463z" fill="#e9f1f1ff" stroke-width="1.9929"/></svg>