<svg xmlns="http://www.w3.org/2000/svg" width="64" height="64"><defs><linearGradient id="A" x1="2.395" x2="61.612" y1="29.507" y2="29.507" gradientUnits="userSpaceOnUse"><stop stop-color="#6babb6" offset="0"/><stop stop-color="#f38bb0" offset="1"/></linearGradient><linearGradient id="B" x1="1.939" y1="36.929" x2="61.414" y2="36.929" gradientUnits="userSpaceOnUse"><stop offset="0" stop-color="#3c6183"/><stop offset="1" stop-color="#408479"/></linearGradient></defs><path fill="url(#A)" d="M31.519 13.207c-.88 0-1.922-.516-2.317-1.148l-1.77-2.884c-.393-.631-1.435-1.147-2.315-1.148L5.847 8c-1.946-.003-3.44 1.416-3.44 3.166l-.012 39.848h59.217v-35.24c0-1.554-.914-2.567-2.515-2.567z"/><path fill="#fff5f6" d="M57.94 26.826H6.448v-7.23c0-1.183.868-2.41 2.519-2.41h46.258c1.678 0 2.716 1.226 2.716 2.41z"/><path fill="url(#B)" d="M58.757 21.338H5.244c-1.622 0-3.243 1.475-3.243 2.95v28.276C2.001 54.515 3.602 56 5.567 56h52.867C60.404 56 62 54.516 62 52.564V24.289c0-1.475-1.622-2.951-3.243-2.951"/><path d="m58.38 34.931-9.3203 2.1504a1.6167 1.6167 0 0 0-1.1297 1.4803v10.255a3.1944 3.1944 0 0 0-2.2906-0.24737c-1.5232 0.39541-2.4796 1.6732-2.1523 2.8536 0.32723 1.1804 1.8271 1.8407 3.3503 1.4453 1.2154-0.31555 1.9381-1.2076 2.0705-2.1484l0.02336-8.7263 9.0282-2.1231v6.6908a3.2139 3.2139 0 0 0-2.2945-0.24737c-1.5232 0.39541-2.4796 1.6732-2.1543 2.8536 0.32529 1.1804 1.831 1.8407 3.3522 1.4453 1.2154-0.31555 1.9361-1.2077 2.0705-2.1504l0.03897-12.614c0-0.48696-0.18699-0.84925-0.59214-0.91548m-0.42073 1.4472v2.3958l-9.0243 2.1212 0.0078-2.4017z" fill="#e9f1f1ff" stroke-width="1.9478"/></svg>