<svg xmlns="http://www.w3.org/2000/svg" width="64" height="64"><defs><linearGradient id="A" x1="2.395" x2="61.612" y1="29.507" y2="29.507" gradientUnits="userSpaceOnUse"><stop stop-color="#6babb6" offset="0"/><stop stop-color="#f38bb0" offset="1"/></linearGradient><linearGradient id="B" x1="1.939" y1="36.929" x2="61.414" y2="36.929" gradientUnits="userSpaceOnUse"><stop offset="0" stop-color="#3c6183"/><stop offset="1" stop-color="#408479"/></linearGradient></defs><path fill="url(#A)" d="M31.519 13.207c-.88 0-1.922-.516-2.317-1.148l-1.77-2.884c-.393-.631-1.435-1.147-2.315-1.148L5.847 8c-1.946-.003-3.44 1.416-3.44 3.166l-.012 39.848h59.217v-35.24c0-1.554-.914-2.567-2.515-2.567z"/><path fill="#fff5f6" d="M57.94 26.826H6.448v-7.23c0-1.183.868-2.41 2.519-2.41h46.258c1.678 0 2.716 1.226 2.716 2.41z"/><path fill="url(#B)" d="M58.757 21.338H5.244c-1.622 0-3.243 1.475-3.243 2.95v28.276C2.001 54.515 3.602 56 5.567 56h52.867C60.404 56 62 54.516 62 52.564V24.289c0-1.475-1.622-2.951-3.243-2.951"/><g transform="matrix(2.0109 0 0 2.0109 -.32446 -.26255)" fill="#e9f1f1ff">
  <path d="m29.5 21.096c0-1.976-1.612-3.588-3.588-3.588s-3.588 1.612-3.588 3.588c0 0.824 0.327 1.549 0.797 2.157l-2.459 2.459a0.45 0.45 0 0 0 5e-3 0.629 0.45 0.45 0 0 0 0.629 5e-3l2.459-2.459c0.607 0.47 1.332 0.797 2.157 0.797 1.976 0 3.588-1.612 3.588-3.588m-0.746 0c2e-3 0.754-0.297 1.478-0.83 2.011s-1.257 0.832-2.011 0.83-1.478-0.297-2.011-0.83-0.832-1.257-0.83-2.011 0.297-1.478 0.83-2.011 1.257-0.832 2.011-0.83 1.478 0.297 2.011 0.83 0.832 1.257 0.83 2.011" fill="#e9f1f1ff"/>
 </g></svg>