<svg xmlns="http://www.w3.org/2000/svg" width="64" height="64"><defs><linearGradient id="A" x1="2.395" x2="61.612" y1="29.507" y2="29.507" gradientUnits="userSpaceOnUse"><stop stop-color="#6babb6" offset="0"/><stop stop-color="#f38bb0" offset="1"/></linearGradient><linearGradient id="B" x1="1.939" y1="36.929" x2="61.414" y2="36.929" gradientUnits="userSpaceOnUse"><stop offset="0" stop-color="#3c6183"/><stop offset="1" stop-color="#408479"/></linearGradient></defs><path fill="url(#A)" d="M31.519 13.207c-.88 0-1.922-.516-2.317-1.148l-1.77-2.884c-.393-.631-1.435-1.147-2.315-1.148L5.847 8c-1.946-.003-3.44 1.416-3.44 3.166l-.012 39.848h59.217v-35.24c0-1.554-.914-2.567-2.515-2.567z"/><path fill="#fff5f6" d="M57.94 26.826H6.448v-7.23c0-1.183.868-2.41 2.519-2.41h46.258c1.678 0 2.716 1.226 2.716 2.41z"/><path fill="url(#B)" d="M58.757 21.338H5.244c-1.622 0-3.243 1.475-3.243 2.95v28.276C2.001 54.515 3.602 56 5.567 56h52.867C60.404 56 62 54.516 62 52.564V24.289c0-1.475-1.622-2.951-3.243-2.951"/> <path d="m40.077 34.935a2.7682 2.7682 0 0 0-2.7722 2.7722v12.487a2.7682 2.7682 0 0 0 2.7742 2.7782h16.148a2.7682 2.7682 0 0 0 2.7742-2.7782v-12.487a2.7682 2.7682 0 0 0-2.7722-2.7722zm0 1.3239h16.148c0.77229 0 1.4603 0.62987 1.4603 1.4042v12.577l-6.8202-6.9807-4.8263 5.5484-3.5004-2.7742-3.9176 4.2045v-12.575c0-0.77429 0.69004-1.4042 1.4583-1.4042m3.4663 2.8364c-2.7762 0-2.7762 4.1643 0 4.1643 2.7762 0 2.7762-4.1643 0-4.1643m7.3157 6.2024 6.07 6.0339c-0.36508 0.35505-0.5055 0.38715-1.023 0.42125l-8.0298-0.05416-7.3959 8e-3c-0.77028-0.01605-0.93678-0.18856-1.1494-0.4373l3.1894-3.3038 3.5305 2.6117z" fill="#e9f1f1ff" stroke-width="2.006"/></svg>