<?xml version="1.0" encoding="UTF-8"?>
<svg width="64" height="64" version="1.1" xml:space="preserve" xmlns="http://www.w3.org/2000/svg" xmlns:xlink="http://www.w3.org/1999/xlink"><defs><linearGradient id="A" x1="387.08" x2="446.15" y1="504.16" y2="504.16" gradientTransform="translate(-384.57,-483.8)" gradientUnits="userSpaceOnUse" xlink:href="#linearGradient6"><stop stop-color="#6babb6" offset="0"/><stop stop-color="#f38bb0" offset="1"/></linearGradient><linearGradient id="linearGradient6" x1="317.44" x2="379.19" y1="522.92" y2="522.92" gradientTransform="translate(-316.57 -483.8)" gradientUnits="userSpaceOnUse"><stop stop-color="#3c6183" offset="0"/><stop stop-color="#408479" offset="1"/></linearGradient><linearGradient id="linearGradient9" x1="32.448" x2="32.448" y1="17.256" y2="49.381" gradientUnits="userSpaceOnUse"><stop stop-color="#fff5f6" offset="0"/><stop stop-color="#fff5f6" stop-opacity="0" offset="1"/></linearGradient></defs><path d="m31.52 13.205c-0.88 0-1.922-0.516-2.317-1.148l-1.77-2.884c-0.393-0.631-1.435-1.147-2.315-1.148l-19.27-0.027c-1.946-3e-3 -3.44 1.416-3.44 3.166l-0.012 39.848h59.217v-35.24c0-1.554-0.914-2.567-2.515-2.567z" fill="url(#A)" stop-color="#000000" style="-inkscape-stroke:none;font-variation-settings:normal"/><path d="m57.94 26.826h-51.492v-7.23c0-1.183 0.868-2.41 2.519-2.41h46.258c1.678 0 2.716 1.226 2.716 2.41z" fill="url(#linearGradient9)" stop-color="#000000" style="-inkscape-stroke:none;font-variation-settings:normal"/><path d="m60.51 23.777h-57.018c-1.728 0-3.567 1.479-3.455 2.95l1.965 25.835c0.148 1.945 1.601 3.436 3.566 3.436h52.867c1.97 0 3.418-1.49 3.566-3.436l1.965-25.834c0.112-1.471-1.728-2.951-3.455-2.951" fill="url(#linearGradient6)" stop-color="#000000" style="-inkscape-stroke:none;font-variation-settings:normal"/></svg>
