<svg xmlns="http://www.w3.org/2000/svg" width="64" height="64"><defs><linearGradient id="A" x1="2.395" x2="61.612" y1="29.507" y2="29.507" gradientUnits="userSpaceOnUse"><stop stop-color="#6babb6" offset="0"/><stop stop-color="#f38bb0" offset="1"/></linearGradient><linearGradient id="B" x1="1.939" y1="36.929" x2="61.414" y2="36.929" gradientUnits="userSpaceOnUse"><stop offset="0" stop-color="#3c6183"/><stop offset="1" stop-color="#408479"/></linearGradient></defs><path fill="url(#A)" d="M31.519 13.207c-.88 0-1.922-.516-2.317-1.148l-1.77-2.884c-.393-.631-1.435-1.147-2.315-1.148L5.847 8c-1.946-.003-3.44 1.416-3.44 3.166l-.012 39.848h59.217v-35.24c0-1.554-.914-2.567-2.515-2.567z"/><path fill="#fff5f6" d="M57.94 26.826H6.448v-7.23c0-1.183.868-2.41 2.519-2.41h46.258c1.678 0 2.716 1.226 2.716 2.41z"/><path fill="url(#B)" d="M58.757 21.338H5.244c-1.622 0-3.243 1.475-3.243 2.95v28.276C2.001 54.515 3.602 56 5.567 56h52.867C60.404 56 62 54.516 62 52.564V24.289c0-1.475-1.622-2.951-3.243-2.951"/><path d="M49.647 34.945a1.229 1.229 0 0 0-1.229 1.229 1.201 1.201 0 0 0 .388.818h-.08l2.863 2.865h-9.414a1.229 1.229 0 0 0 0 2.455h4.502l-5.238 5.238a1.229 1.229 0 0 0 .736 2.211 1.201 1.201 0 0 0 .9-.41l2.783-2.783a6.549 6.549 0 0 0 6.549 6.383A6.549 6.549 0 0 0 56.5 41.246l-5.975-5.891a1.201 1.201 0 0 0-.88-.41zm2.763 7.367a4.102 4.102 0 0 1 2.455.818l.736.736a4.092 4.092 0 0 1-3.191 6.631 4.094 4.094 0 1 1 0-8.186m0 2.455a1.637 1.637 0 0 0 0 3.273 1.637 1.637 0 0 0 0-3.273" fill="#e9f1f1ff"/></svg>