<svg xmlns="http://www.w3.org/2000/svg" width="64" height="64"><defs><linearGradient id="A" x1="2.395" x2="61.612" y1="29.507" y2="29.507" gradientUnits="userSpaceOnUse"><stop stop-color="#6babb6" offset="0"/><stop stop-color="#f38bb0" offset="1"/></linearGradient><linearGradient id="B" x1="1.939" y1="36.929" x2="61.414" y2="36.929" gradientUnits="userSpaceOnUse"><stop offset="0" stop-color="#3c6183"/><stop offset="1" stop-color="#408479"/></linearGradient></defs><path fill="url(#A)" d="M31.519 13.207c-.88 0-1.922-.516-2.317-1.148l-1.77-2.884c-.393-.631-1.435-1.147-2.315-1.148L5.847 8c-1.946-.003-3.44 1.416-3.44 3.166l-.012 39.848h59.217v-35.24c0-1.554-.914-2.567-2.515-2.567z"/><path fill="#fff5f6" d="M57.94 26.826H6.448v-7.23c0-1.183.868-2.41 2.519-2.41h46.258c1.678 0 2.716 1.226 2.716 2.41z"/><path fill="url(#B)" d="M58.757 21.338H5.244c-1.622 0-3.243 1.475-3.243 2.95v28.276C2.001 54.515 3.602 56 5.567 56h52.867C60.404 56 62 54.516 62 52.564V24.289c0-1.475-1.622-2.951-3.243-2.951"/><path d="m42.997 34.933c-0.93493 0-1.6131 0.82659-1.6131 1.7154v14.614c0 0.88878 0.67812 1.7154 1.611 1.7154h14.385c0.93292 0 1.611-0.82659 1.611-1.7154v-14.614c0-0.88878-0.67812-1.7154-1.611-1.7154zm-0.21267 1.3723h14.806c-0.01605 0 0.04614 6e-3 0.04614 0.15248v14.967c0 0.14445-0.06019 0.14646-0.04414 0.14646h-14.806c0.01404 0-0.04614 0-0.04614-0.14846v-14.967c0-0.14445 0.06019-0.15047 0.04414-0.15047m1.8719 10.826h6.7692v1.1757h-6.7672zm0-3.8982h11.061v1.1757h-11.059zm0-3.9002h11.061v1.1757h-11.059z" fill="#e9f1f1ff" stroke-width="2.0063"/></svg>