<svg xmlns="http://www.w3.org/2000/svg" width="64" height="64"><defs><linearGradient id="A" x1="2.395" x2="61.612" y1="29.507" y2="29.507" gradientUnits="userSpaceOnUse"><stop stop-color="#6babb6" offset="0"/><stop stop-color="#f38bb0" offset="1"/></linearGradient><linearGradient id="B" x1="1.939" y1="36.929" x2="61.414" y2="36.929" gradientUnits="userSpaceOnUse"><stop offset="0" stop-color="#3c6183"/><stop offset="1" stop-color="#408479"/></linearGradient></defs><path fill="url(#A)" d="M31.519 13.207c-.88 0-1.922-.516-2.317-1.148l-1.77-2.884c-.393-.631-1.435-1.147-2.315-1.148L5.847 8c-1.946-.003-3.44 1.416-3.44 3.166l-.012 39.848h59.217v-35.24c0-1.554-.914-2.567-2.515-2.567z"/><path fill="#fff5f6" d="M57.94 26.826H6.448v-7.23c0-1.183.868-2.41 2.519-2.41h46.258c1.678 0 2.716 1.226 2.716 2.41z"/><path fill="url(#B)" d="M58.757 21.338H5.244c-1.622 0-3.243 1.475-3.243 2.95v28.276C2.001 54.515 3.602 56 5.567 56h52.867C60.404 56 62 54.516 62 52.564V24.289c0-1.475-1.622-2.951-3.243-2.951"/><path d="m52.51 34.947a3.878 3.878 0 0 0-3.886 3.886 3.878 3.878 0 0 0 3.1024 3.808 6.4566 6.4566 0 0 0-3.856 1.907 7.9958 7.9958 0 0 1 1.2054 0.65966 5.1373 5.1373 0 0 1 3.4342-1.3233 5.1693 5.1693 0 0 1 5.1813 5.1813h-5.6331a7.9958 7.9958 0 0 1 0.34382 1.2953h6.5866v-1.2953a6.4566 6.4566 0 0 0-5.693-6.4247 3.878 3.878 0 0 0 3.1024-3.808 3.878 3.878 0 0 0-3.886-3.886m0 1.2953c1.4353 0 2.5907 1.1554 2.5907 2.5907s-1.1554 2.5907-2.5907 2.5907a2.5847 2.5847 0 0 1-2.5907-2.5907c0-1.4353 1.1554-2.5907 2.5907-2.5907m-7.772 1.1654a3.886 3.886 0 1 0 0 7.772 3.886 3.886 0 1 0 0-7.772m0 7.772a6.4626 6.4626 0 0 0-6.4766 6.4766v1.2953h12.953v-1.2953a6.4626 6.4626 0 0 0-6.4766-6.4766m0-6.4766c1.4353 0 2.5907 1.1554 2.5907 2.5907 0 1.4353-1.1554 2.5906-2.5907 2.5906a2.5847 2.5847 0 0 1-2.5906-2.5906c0-1.4353 1.1554-2.5907 2.5906-2.5907m0 7.772a5.1693 5.1693 0 0 1 5.1813 5.1813h-10.363a5.1693 5.1693 0 0 1 5.1813-5.1813" fill="#e9f1f1ff" stroke-width="1.999"/></svg>