<svg xmlns="http://www.w3.org/2000/svg" width="64" height="64"><defs><linearGradient id="A" x1="2.395" x2="61.612" y1="29.507" y2="29.507" gradientUnits="userSpaceOnUse"><stop stop-color="#6babb6" offset="0"/><stop stop-color="#f38bb0" offset="1"/></linearGradient><linearGradient id="B" x1="1.939" y1="36.929" x2="61.414" y2="36.929" gradientUnits="userSpaceOnUse"><stop offset="0" stop-color="#3c6183"/><stop offset="1" stop-color="#408479"/></linearGradient></defs><path fill="url(#A)" d="M31.519 13.207c-.88 0-1.922-.516-2.317-1.148l-1.77-2.884c-.393-.631-1.435-1.147-2.315-1.148L5.847 8c-1.946-.003-3.44 1.416-3.44 3.166l-.012 39.848h59.217v-35.24c0-1.554-.914-2.567-2.515-2.567z"/><path fill="#fff5f6" d="M57.94 26.826H6.448v-7.23c0-1.183.868-2.41 2.519-2.41h46.258c1.678 0 2.716 1.226 2.716 2.41z"/><path fill="url(#B)" d="M58.757 21.338H5.244c-1.622 0-3.243 1.475-3.243 2.95v28.276C2.001 54.515 3.602 56 5.567 56h52.867C60.404 56 62 54.516 62 52.564V24.289c0-1.475-1.622-2.951-3.243-2.951"/> <g transform="matrix(1.9929 0 0 1.9929 .20707 .20061)" fill="#e9f1f1ff">
  <path d="m21.718 17.887c-0.77 0-1.393 0.59-1.393 1.321v5.948c0 0.732 0.622 1.321 1.393 1.321h4.174c0.77 0 1.39-0.589 1.39-1.32v-3.966l-3.478-3.304zm0 0.66h1.39v3.305h3.48v3.304c0 0.366-0.31 0.66-0.696 0.66h-4.174c-0.385 0-0.697-0.294-0.697-0.66v-5.948q2e-3 -0.138 0.054-0.258a0.7 0.7 0 0 1 0.643-0.402m2.086 0.275 2.494 2.37h-2.494z"/>
  <path d="m24.718 17.428q-0.271 2e-3 -0.502 0.11l0.512 0.486h1.186v1.125l0.597 0.566v-1.443l2.141 2.142h-1.404l0.453 0.43v0.168h1.199v2.986c1e-3 0.158-0.062 0.311-0.174 0.423s-0.264 0.175-0.422 0.175h-0.591l2e-3 0.598h0.59c0.661 0 1.193-0.534 1.193-1.196v-3.583l-2.987-2.986z"/>
 </g></svg>
