<svg xmlns="http://www.w3.org/2000/svg" width="64" height="64"><defs><linearGradient id="A" x1="2.395" x2="61.612" y1="29.507" y2="29.507" gradientUnits="userSpaceOnUse"><stop stop-color="#6babb6" offset="0"/><stop stop-color="#f38bb0" offset="1"/></linearGradient><linearGradient id="B" x1="1.939" y1="36.929" x2="61.414" y2="36.929" gradientUnits="userSpaceOnUse"><stop offset="0" stop-color="#3c6183"/><stop offset="1" stop-color="#408479"/></linearGradient></defs><path fill="url(#A)" d="M31.519 13.207c-.88 0-1.922-.516-2.317-1.148l-1.77-2.884c-.393-.631-1.435-1.147-2.315-1.148L5.847 8c-1.946-.003-3.44 1.416-3.44 3.166l-.012 39.848h59.217v-35.24c0-1.554-.914-2.567-2.515-2.567z"/><path fill="#fff5f6" d="M57.94 26.826H6.448v-7.23c0-1.183.868-2.41 2.519-2.41h46.258c1.678 0 2.716 1.226 2.716 2.41z"/><path fill="url(#B)" d="M58.757 21.338H5.244c-1.622 0-3.243 1.475-3.243 2.95v28.276C2.001 54.515 3.602 56 5.567 56h52.867C60.404 56 62 54.516 62 52.564V24.289c0-1.475-1.622-2.951-3.243-2.951"/><path d="m51.677 34.328c-0.55219 0-0.73425 0.44615-0.73425 1.0003v12.648l-4.9857-4.7696c-0.39214-0.39214-0.82028-0.54419-1.1104-0.22608-0.3041 0.33212-0.20007 0.74826 0.19207 1.1404l6.1181 5.904c0.38013 0.34012 0.5862 0.34812 1.0123 0.03801l0.02801-0.03801 6.0881-5.844c0.39214-0.39214 0.55619-0.8843 0.22408-1.2004-0.33212-0.31611-0.75026-0.08603-1.1424 0.30611l-4.9537 4.6896v-12.648c0-0.55419-0.18006-1.0003-0.73626-1.0003m-6.3282 17.366c-0.55419 0-1.0003 0.2801-1.0003 0.62422s0.44616 0.62622 1.0003 0.62622h12.658c0.55419 0 1.0003-0.2801 1.0003-0.62622 0-0.34612-0.44615-0.62622-1.0003-0.62622z" fill="#e9f1f1ff" stroke-width="2.0007" paint-order="stroke fill markers"/></svg>