<svg xmlns="http://www.w3.org/2000/svg" width="64" height="64"><defs><linearGradient id="A" x1="2.395" x2="61.612" y1="29.507" y2="29.507" gradientUnits="userSpaceOnUse"><stop stop-color="#6babb6" offset="0"/><stop stop-color="#f38bb0" offset="1"/></linearGradient><linearGradient id="B" x1="1.939" y1="36.929" x2="61.414" y2="36.929" gradientUnits="userSpaceOnUse"><stop offset="0" stop-color="#3c6183"/><stop offset="1" stop-color="#408479"/></linearGradient></defs><path fill="url(#A)" d="M31.519 13.207c-.88 0-1.922-.516-2.317-1.148l-1.77-2.884c-.393-.631-1.435-1.147-2.315-1.148L5.847 8c-1.946-.003-3.44 1.416-3.44 3.166l-.012 39.848h59.217v-35.24c0-1.554-.914-2.567-2.515-2.567z"/><path fill="#fff5f6" d="M57.94 26.826H6.448v-7.23c0-1.183.868-2.41 2.519-2.41h46.258c1.678 0 2.716 1.226 2.716 2.41z"/><path fill="url(#B)" d="M58.757 21.338H5.244c-1.622 0-3.243 1.475-3.243 2.95v28.276C2.001 54.515 3.602 56 5.567 56h52.867C60.404 56 62 54.516 62 52.564V24.289c0-1.475-1.622-2.951-3.243-2.951"/><g transform="matrix(2.0807 0 0 2.0807 -2.3308 -2.1076)" fill="#e9f1f1ff">
  <g>
   <path d="m24.216 22.856c-0.775 0.016-1.5 0.258-2.204 0.789-0.136 0.117-0.167 0.344-0.07 0.506s0.314 0.221 0.448 0.106c1.149-0.832 2.547-0.863 3.692-0.076 0.137 0.11 0.352 0.042 0.445-0.125a0.41 0.41 0 0 0-0.084-0.503c-0.737-0.503-1.453-0.714-2.227-0.698m0.036-2.528a5.54 5.54 0 0 0-3.671 1.444c-0.132 0.123-0.155 0.351-0.052 0.509s0.34 0.232 0.469 0.11c1.992-1.635 4.517-1.703 6.525-0.043 0.131 0.12 0.368 0.043 0.47-0.117s0.076-0.387-0.056-0.509c-1.172-0.958-2.387-1.404-3.685-1.395m-0.025-2.529c-1.814 0.015-3.525 0.732-5.107 2.133-0.129 0.127-0.148 0.356-0.041 0.511s0.363 0.248 0.49 0.122c2.834-2.575 6.501-2.609 9.347-0.078 0.129 0.124 0.385 0.026 0.489-0.131s0.084-0.385-0.047-0.51c-1.625-1.356-3.317-2.063-5.132-2.048m5e-3 7.503c-0.313 0-0.567 0.26-0.567 0.581s0.254 0.582 0.567 0.582 0.567-0.26 0.567-0.582-0.254-0.581-0.567-0.581"/>
  </g>
 </g></svg>