<svg xmlns="http://www.w3.org/2000/svg" width="64" height="64"><defs><linearGradient id="A" x1="2.395" x2="61.612" y1="29.507" y2="29.507" gradientUnits="userSpaceOnUse"><stop stop-color="#6babb6" offset="0"/><stop stop-color="#f38bb0" offset="1"/></linearGradient><linearGradient id="B" x1="1.939" y1="36.929" x2="61.414" y2="36.929" gradientUnits="userSpaceOnUse"><stop offset="0" stop-color="#3c6183"/><stop offset="1" stop-color="#408479"/></linearGradient></defs><path fill="url(#A)" d="M31.519 13.207c-.88 0-1.922-.516-2.317-1.148l-1.77-2.884c-.393-.631-1.435-1.147-2.315-1.148L5.847 8c-1.946-.003-3.44 1.416-3.44 3.166l-.012 39.848h59.217v-35.24c0-1.554-.914-2.567-2.515-2.567z"/><path fill="#fff5f6" d="M57.94 26.826H6.448v-7.23c0-1.183.868-2.41 2.519-2.41h46.258c1.678 0 2.716 1.226 2.716 2.41z"/><path fill="url(#B)" d="M58.757 21.338H5.244c-1.622 0-3.243 1.475-3.243 2.95v28.276C2.001 54.515 3.602 56 5.567 56h52.867C60.404 56 62 54.516 62 52.564V24.289c0-1.475-1.622-2.951-3.243-2.951"/><path d="m49.985 34.937q-0.18075 6e-3 -0.35548 0.02008c-4.3783 0.15063-7.9913 3.5207-8.5657 7.7985q-0.02209 0.15264-0.03816 0.30728c-0.64469 6.1195 5.2619 11.361 11.49 9.5277 2.159-0.63465 3.4725-1.8517 4.3642-2.8358v-4e-3l-0.01607 6e-3a9.0377 9.0377 0 0 0 2.1329-5.8082c-0.02008-3.8802-3.0106-8.9975-9.0116-9.0116m2e-3 1.4741 0.0241 2e-3 -0.0241 0.39364a13.496 13.496 0 0 0 0.36552 3.0768 8.0335 8.0335 0 0 1-4.322 1.8557 12.452 12.452 0 0 1 2.6511-5.2117q0.26109-0.04418 0.53021-0.06828l0.22896-0.02812q0.27113-0.02008 0.54628-0.02008m1.0946 0.08837 0.01607 4e-3q0.36151 0.05423 0.719 0.1446h4e-3q0.36352 0.09038 0.719 0.22092l0.02611 0.0081c-0.32335 0.76318-0.76318 1.4721-1.3014 2.1028a12.653 12.653 0 0 1-0.20084-2.1731c0-0.10042 0.01607-0.20084 0.02008-0.30728m-4.1553 0.57239a13.255 13.255 0 0 0-2.0144 4.7056 8.0335 8.0335 0 0 1-2.0224-0.32536 8.0335 8.0335 0 0 1 0.27716-0.68285l0.02008-0.04017q0.15063-0.32134 0.3354-0.63264l0.01004-0.01808a8.0335 8.0335 0 0 1 0.88569-1.191l0.0081-0.01205q0.24703-0.26912 0.52218-0.51615l0.02209-0.02008q0.26711-0.241 0.55632-0.45188l0.03213-0.0241a8.0335 8.0335 0 0 1 0.60251-0.39766l0.01607-6e-3q0.31933-0.18879 0.65674-0.34544zm6.6136 0.23498 6e-3 4e-3a8.0335 8.0335 0 0 1 1.1749 0.78528l0.06628 0.0482 6e-3 6e-3q0.25306 0.21088 0.48402 0.44385l0.06427 0.06025 4e-3 6e-3q0.18678 0.1908 0.36151 0.40167l0.14862 0.17071q0.14661 0.18678 0.28117 0.38159l0.16067 0.22695q0.1687 0.26511 0.31532 0.54226l0.05222 0.08837 2e-3 6e-3q0.14059 0.27113 0.25707 0.55833l0.05423 0.1205 4e-3 0.01406q0.09239 0.24101 0.1687 0.49004l0.08034 0.24301a9.0377 9.0377 0 0 0-4.1352 1.7372 12.452 12.452 0 0 1-1.5464-3.4042 9.0377 9.0377 0 0 0 1.9883-2.9302m-2.884 3.6954c0.38762 1.193 0.93189 2.3136 1.6167 3.3379a9.1381 9.1381 0 0 0-2.643 4.786 12.452 12.452 0 0 1-3.4725-1.1327 12.452 12.452 0 0 1-0.47197-3.3721 12.834 12.834 0 0 1 0.1426-1.7915 9.0377 9.0377 0 0 0 4.8281-1.8276m-8.0536 1.4701q1.0444 0.31732 2.1369 0.37155-0.1205 0.88369-0.13054 1.7774c0 0.90377 0.0944 1.7834 0.26109 2.639a12.452 12.452 0 0 1-2.2855-1.9642 8.0335 8.0335 0 0 1-0.07431-0.54226l-0.03013-0.239a7.431 7.431 0 0 1 0.12251-2.0425m14.842 0.48402a8.0335 8.0335 0 0 1 0.07029 0.9841 7.5314 7.5314 0 0 1-0.75917 3.2737l-0.0241 0.05623a12.653 12.653 0 0 1-3.0085-2.7635 8.0335 8.0335 0 0 1 3.7195-1.5464m-4.5309 2.2454a13.657 13.657 0 0 0 3.2917 2.9824l-2e-3 6e-3a8.0335 8.0335 0 0 1-0.30527 0.39766 12.452 12.452 0 0 1-4.1533 0.72703c-0.35146 0-0.69892-0.0241-1.0444-0.05222a8.0335 8.0335 0 0 1 2.2134-4.0607m-9.5719 2.2614q0.89774 0.719 1.912 1.2773 0.24502 0.75314 0.57038 1.4661l-6e-3 -6e-3a8.0335 8.0335 0 0 1-0.57038-0.42176l-0.03212-0.0241a7.6318 7.6318 0 0 1-1.8738-2.2936m3.2857 1.922q1.3858 0.56234 2.8599 0.80335a10.042 10.042 0 0 0-0.03816 0.7431l0.0241 0.51214h-0.01004a7.6318 7.6318 0 0 1-1.9924-0.41778h-0.01004a12.05 12.05 0 0 1-0.83348-1.6388m7.5937 0.7672-2e-3 6e-3a8.0335 8.0335 0 0 1-0.62661 0.38159l-0.01406 6e-3h-6e-3q-0.28117 0.15464-0.57239 0.28117l-0.14059 0.06025a8.0335 8.0335 0 0 1-0.55432 0.20082l-0.15464 0.05222a8.0335 8.0335 0 0 1-0.51816 0.13456l-0.23297 0.05222a8.0335 8.0335 0 0 1-0.48402 0.07029 8.0335 8.0335 0 0 1-0.3595 0.04418l-0.03013-0.51414q4e-3 -0.30126 0.02812-0.59649l1.189 0.06025a13.255 13.255 0 0 0 2.4803-0.23699" fill="#e9f1f1ff" stroke-width="2.0084"/></svg>