<svg xmlns="http://www.w3.org/2000/svg" viewBox="0 0 32 32" xmlns:v="https://vecta.io/nano"><defs><linearGradient id="A" x1="10.738" y1="-25.156" x2="70.213" y2="-25.156" gradientUnits="userSpaceOnUse"><stop offset="0" stop-color="#3c6183"/><stop offset="1" stop-color="#408479"/></linearGradient><linearGradient id="B" x1="12.198" y1="15.91" x2="12.198" y2="27.577" gradientUnits="userSpaceOnUse"><stop offset="0" stop-color="#7ca8b6"/><stop offset="1" stop-color="#9ec0d7"/></linearGradient><linearGradient id="C" x1="4.419" y1="7.183" x2="29.564" y2="7.183" gradientUnits="userSpaceOnUse"><stop stop-color="#6babb6" offset="0"/><stop stop-color="#f38bb0" offset="1"/></linearGradient></defs><g transform="matrix(0 .957498 -.950731 0 .789119 .60095)" fill="#9ec0d7" opacity=".39"><rect width="13" height="7" x="17" y="-11" rx="1" ry="1.384"/><rect width="13" height="7" x="17" y="-28" rx="1" ry="1.384"/></g><path d="M2.262 6.423v2.873c-1.177 0-.981 1.38-.981 1.915v12.834c0 2.292.981 3.057 3.925 3.057h21.589c2.922 0 3.925-.764 3.925-3.057V9.412c0-1.17-.803-2.031-1.963-2.031 0-2.873-14.397-.422-14.397-.422" fill="url(#A)"/><g fill-rule="evenodd"><g transform="matrix(1.036252 0 0 1.011097 -.579809 -.177098)"><path d="M5.395 2C2.961 2 2 3.033 2 4.707V9h10.347l2-2h14.689c0-2.919-.677-3-4-3H16c-.981 0-1.068-2-3.068-2z" fill="url(#C)" transform="matrix(.946989 0 0 .946989 .847843 .846033)"/><path d="M14.434 7.475L12.54 8.476H2.742v.893h9.798zM2.494 26.219c.509.421 1.195.751 3.089.751h20.834c1.754 0 2.385-.252 3.053-.751z" opacity=".404" fill="url(#C)"/></g><path d="M14.377 7.381l-1.963 1.012H2.261v.903h10.153zM2.004 26.333c.527.426 1.238.759 3.201.759h21.589c1.818 0 2.471-.255 3.164-.759z" opacity=".274" fill="#333d45"/></g><path d="M5.881 15.921c-.724 0-1.297.482-1.283 1.114l-.006 10.376c0 .53.531.957 1.19.957h4.274c.66 0 1.19-.427 1.19-.957v-6.136h9.507v6.136c0 .53.531.957 1.19.957h4.274c.66 0 1.248-.427 1.248-.957l-.002-10.279c.022-.658-.55-1.211-1.289-1.211z" fill="url(#B)"/></svg>