<svg xmlns="http://www.w3.org/2000/svg" width="64" height="64"><defs><linearGradient id="A" x1="2.395" x2="61.612" y1="29.507" y2="29.507" gradientUnits="userSpaceOnUse"><stop stop-color="#6babb6" offset="0"/><stop stop-color="#f38bb0" offset="1"/></linearGradient><linearGradient id="B" x1="1.939" y1="36.929" x2="61.414" y2="36.929" gradientUnits="userSpaceOnUse"><stop offset="0" stop-color="#3c6183"/><stop offset="1" stop-color="#408479"/></linearGradient></defs><path fill="url(#A)" d="M31.519 13.207c-.88 0-1.922-.516-2.317-1.148l-1.77-2.884c-.393-.631-1.435-1.147-2.315-1.148L5.847 8c-1.946-.003-3.44 1.416-3.44 3.166l-.012 39.848h59.217v-35.24c0-1.554-.914-2.567-2.515-2.567z"/><path fill="#fff5f6" d="M57.94 26.826H6.448v-7.23c0-1.183.868-2.41 2.519-2.41h46.258c1.678 0 2.716 1.226 2.716 2.41z"/><path fill="url(#B)" d="M58.757 21.338H5.244c-1.622 0-3.243 1.475-3.243 2.95v28.276C2.001 54.515 3.602 56 5.567 56h52.867C60.404 56 62 54.516 62 52.564V24.289c0-1.475-1.622-2.951-3.243-2.951"/><path d="M49.789 34.929a.6.6 0 0 0-.426.178l-8.507 8.511c-.845.841.28 1.759.849 1.191l.863-.863v6.621a2.402 2.402 0 0 0 2.408 2.404H54.6a2.402 2.402 0 0 0 2.408-2.402v-6.625l.861.865c.566.568 1.649-.394.851-1.191l-8.507-8.511a.6.6 0 0 0-.424-.176m0 1.795l6.015 6.017v7.826A1.201 1.201 0 0 1 54.6 51.77h-2.404v-3.611a2.409 2.409 0 1 0-4.818 0v3.609h-2.402a1.201 1.201 0 0 1-1.205-1.201v-7.826zm-.012 10.352c.632-.008 1.267.332 1.281 1.055v3.663h-2.544v-3.663c0-.685.63-1.045 1.261-1.055" fill="#e9f1f1ff"/></svg>