<svg xmlns="http://www.w3.org/2000/svg" width="64" height="64"><defs><linearGradient id="A" x1="2.395" x2="61.612" y1="29.507" y2="29.507" gradientUnits="userSpaceOnUse"><stop stop-color="#6babb6" offset="0"/><stop stop-color="#f38bb0" offset="1"/></linearGradient><linearGradient id="B" x1="1.939" y1="36.929" x2="61.414" y2="36.929" gradientUnits="userSpaceOnUse"><stop offset="0" stop-color="#3c6183"/><stop offset="1" stop-color="#408479"/></linearGradient></defs><path fill="url(#A)" d="M31.519 13.207c-.88 0-1.922-.516-2.317-1.148l-1.77-2.884c-.393-.631-1.435-1.147-2.315-1.148L5.847 8c-1.946-.003-3.44 1.416-3.44 3.166l-.012 39.848h59.217v-35.24c0-1.554-.914-2.567-2.515-2.567z"/><path fill="#fff5f6" d="M57.94 26.826H6.448v-7.23c0-1.183.868-2.41 2.519-2.41h46.258c1.678 0 2.716 1.226 2.716 2.41z"/><path fill="url(#B)" d="M58.757 21.338H5.244c-1.622 0-3.243 1.475-3.243 2.95v28.276C2.001 54.515 3.602 56 5.567 56h52.867C60.404 56 62 54.516 62 52.564V24.289c0-1.475-1.622-2.951-3.243-2.951"/><path d="m49.524 34.934a0.58183 0.58183 0 0 0-0.55374 0.37719l-2.2089 5.732-6.1253 0.32302a0.58986 0.58986 0 0 0-0.34308 1.0493l4.765 3.8782-1.575 5.9307a0.58986 0.58986 0 0 0 0.89281 0.64804l5.1482-3.3365 5.1482 3.3345a0.58986 0.58986 0 0 0 0.89281-0.64804l-1.575-5.9307 4.765-3.8782a0.58986 0.58986 0 0 0-0.34308-1.0493l-6.1253-0.32101-2.209-5.734a0.58183 0.58183 0 0 0-0.54973-0.37719zm-2e-3 2.233 1.7956 4.6587a0.58183 0.58183 0 0 0 0.51763 0.37719l4.9757 0.26283-3.8662 3.1519a0.58183 0.58183 0 0 0-0.20063 0.60992l1.282 4.8232-4.1872-2.7125a0.58183 0.58183 0 0 0-0.64202 0l-4.1872 2.7125 1.28-4.8232a0.58183 0.58183 0 0 0-0.20063-0.60992l-3.8662-3.1499 4.9757-0.26483a0.58183 0.58183 0 0 0 0.51963-0.37719z" fill="#e9f1f1ff" stroke-width="2.0063"/></svg>